<svg width="22" height="16" viewBox="0 0 22 16" fill="none" xmlns="http://www.w3.org/2000/svg">
<path d="M2.43461 0.407227V5.23634H1.74474V6.61609H3.12448C3.12448 6.73107 3.07361 6.85867 2.86982 7.08633C2.66603 7.31399 2.33229 7.59052 1.96975 7.92038C1.24468 8.5801 0.36499 9.55525 0.36499 11.0289V11.4775L0.77595 11.6594C0.77595 11.6594 1.03282 11.7668 1.23811 11.8521C1.12139 12.1539 1.05486 12.4812 1.05486 12.8249C1.05486 14.3408 2.29848 15.5844 3.81436 15.5844C5.12794 15.5844 6.23384 14.6494 6.50648 13.4138C6.93331 13.4746 7.35509 13.5148 7.75957 13.5148H11.6293C12.4227 13.5148 13.1786 13.2199 13.7798 12.7104C13.81 12.6997 14.2539 12.5643 14.8887 12.3992C14.8669 12.5387 14.8523 12.68 14.8523 12.8249C14.8523 14.3408 16.0959 15.5844 17.6118 15.5844C19.1277 15.5844 20.3713 14.3408 20.3713 12.8249C20.3713 12.4266 20.2822 12.0489 20.1288 11.7053C20.2115 11.7043 20.2877 11.6972 20.3713 11.6972H21.0612V10.5896L20.9857 10.4427C20.6925 9.86702 20.1508 9.32951 19.4443 8.85548C18.8854 8.48052 18.22 8.16965 17.4959 8.05243C17.2918 7.09479 16.6633 4.74983 14.9615 2.47685H16.2321V0.407227H14.5074C14.0577 0.407227 13.6785 0.696111 13.5359 1.0971H11.403V2.47685H13.1344C13.8617 3.27001 14.4055 4.1038 14.8335 4.89679C14.7356 5.91434 13.8882 7.25733 12.9565 8.30843C12.044 9.33796 11.2657 9.954 11.1281 10.0655H9.33335C9.03742 10.0655 8.82792 9.99458 8.74588 9.93745C8.66383 9.88032 8.64347 9.88083 8.64347 9.69088C8.64347 9.27284 8.87449 8.87254 9.20669 8.4014C9.48104 8.01231 9.80163 7.55648 9.92486 6.97046C9.9891 6.86341 10.0231 6.74093 10.0232 6.61609C10.0232 6.11329 9.74226 5.67158 9.33335 5.43037V0.407227H2.43461ZM3.81436 1.78697H5.1941V3.16672H6.57385V1.78697H7.9536V5.23634H3.81436V1.78697ZM4.50423 6.61609H8.64347C8.64347 6.72966 8.43793 7.09916 8.08025 7.60643C7.72258 8.11371 7.26372 8.79125 7.26372 9.69088C7.26372 10.2501 7.54435 10.7828 7.95764 11.0706C8.37093 11.3584 8.85109 11.4452 9.33335 11.4452H11.403C11.559 11.4454 11.7106 11.3927 11.8328 11.2956C11.8328 11.2956 12.9091 10.4412 13.9886 9.22332C14.6082 8.52432 15.2486 7.70523 15.6877 6.81011C15.9842 7.65386 16.1172 8.28814 16.1512 8.47686L13.0037 11.5732V11.5719C12.6363 11.9326 12.1432 12.1351 11.6293 12.1351H7.75957C6.59095 12.1351 4.94528 11.7111 3.63246 11.2727C3.15728 11.1141 2.82722 10.9913 2.55857 10.886C2.51562 10.8638 2.47046 10.8462 2.42383 10.8335C2.19496 10.7413 2.01004 10.6615 1.866 10.6004C2.0055 9.9326 2.36407 9.42886 2.89947 8.94172C3.2268 8.64388 3.58293 8.35696 3.89655 8.00661C4.21016 7.65627 4.50423 7.19098 4.50423 6.61609ZM17.1766 9.40388C17.6724 9.46784 18.213 9.69132 18.6763 10.0021C18.907 10.1569 18.9593 10.2826 19.1331 10.4522C19.0923 10.4547 19.055 10.4589 19.0145 10.4616C18.9355 10.4303 18.8515 10.4139 18.7666 10.4131C18.6387 10.4125 18.5132 10.4475 18.4041 10.5141C17.452 10.5996 16.636 10.7222 15.8912 10.8537C15.8835 10.8549 15.8759 10.8563 15.8683 10.8577C15.7992 10.87 15.7276 10.8818 15.6608 10.8941L17.1766 9.40388ZM18.5079 11.7874C18.8002 12.0398 18.9916 12.4035 18.9916 12.8249C18.9916 13.5953 18.3822 14.2047 17.6118 14.2047C16.8415 14.2047 16.2321 13.5953 16.2321 12.8249C16.2321 12.5326 16.3246 12.2696 16.4773 12.0475C17.0789 11.9407 17.7659 11.8519 18.5079 11.7874ZM2.52893 12.3358C2.765 12.4215 2.92972 12.4922 3.1959 12.5811C3.79957 12.7826 4.47044 12.9798 5.15368 13.1456C5.0111 13.757 4.47348 14.2047 3.81436 14.2047C3.044 14.2047 2.43461 13.5953 2.43461 12.8249C2.43461 12.651 2.46846 12.4875 2.52893 12.3358Z" fill="#333333"/>
</svg>
