<svg width="17" height="18" viewBox="0 0 17 18" fill="none" xmlns="http://www.w3.org/2000/svg">
<path d="M3.64126 0.877686C2.50644 0.877686 1.57164 1.81248 1.57164 2.94731C1.57164 4.08213 2.50644 5.01693 3.64126 5.01693C4.77608 5.01693 5.71088 4.08213 5.71088 2.94731C5.71088 1.81248 4.77608 0.877686 3.64126 0.877686ZM3.64126 2.25743C4.03106 2.25743 4.33113 2.55751 4.33113 2.94731C4.33113 3.33711 4.03106 3.63718 3.64126 3.63718C3.25146 3.63718 2.95139 3.33711 2.95139 2.94731C2.95139 2.55751 3.25146 2.25743 3.64126 2.25743ZM0.191895 5.7068V10.5359C0.191895 12.4543 1.32355 14.114 2.95139 14.8921V17.4346H4.33113V15.3098C4.55714 15.3425 4.78622 15.365 5.02101 15.365H7.09063V13.9853H5.02101C3.10753 13.9853 1.57164 12.4494 1.57164 10.5359V5.7068H0.191895ZM2.95139 5.7068V10.5359C2.95139 11.6707 3.88619 12.6055 5.02101 12.6055H7.28735C7.76549 12.6055 8.16673 12.9398 8.2521 13.4099L8.28578 13.4032L7.66597 17.4346H8.47038H16.059V7.08655H9.25861L8.55122 11.6853C8.17545 11.4365 7.76263 11.2258 7.28735 11.2258H5.02101C4.63121 11.2258 4.33113 10.9257 4.33113 10.5359V5.7068H2.95139ZM10.4416 8.46629H14.6792V16.0549H9.27478L10.4416 8.46629Z" fill="#333333"/>
</svg>
