<svg width="16" height="18" viewBox="0 0 16 18" fill="none" xmlns="http://www.w3.org/2000/svg">
<path d="M4.43658 0.257324C3.04774 0.257324 1.90705 1.39802 1.90705 2.78686V4.00402L0.965655 5.8868C0.374468 7.06817 0.0673828 8.37116 0.0673828 9.69188V15.2046C0.0673828 16.5934 1.20808 17.7341 2.59692 17.7341H9.48847L13.1507 17.77C14.5484 17.7834 15.7045 16.6387 15.7045 15.2405V9.26341C15.7045 8.24286 15.5206 7.23178 15.1629 6.27665L14.3248 4.04175V2.78686C14.3248 1.39802 13.1841 0.257324 11.7952 0.257324H4.43658ZM4.43658 1.63707H11.7952C12.4383 1.63707 12.945 2.14379 12.945 2.78686V3.47673H3.28679V2.78686C3.28679 2.14379 3.79351 1.63707 4.43658 1.63707ZM3.0236 4.85648H12.6396L12.1069 6.27665C11.9436 6.71263 11.8214 7.1611 11.7315 7.61597H1.75793C1.87402 7.23473 2.02047 6.86243 2.19988 6.50391L3.0236 4.85648ZM13.6349 6.13113L13.8711 6.76082C14.1711 7.56164 14.3248 8.40842 14.3248 9.26341V15.2405C14.3248 15.8887 13.8118 16.3967 13.1642 16.3903L12.6477 16.3849C12.8363 16.0316 12.945 15.6302 12.945 15.2046V9.26341C12.945 8.40842 13.0987 7.56164 13.3986 6.76082L13.6349 6.13113ZM1.48306 8.99572H11.5769C11.5741 9.08509 11.5653 9.17386 11.5653 9.26341V15.2046C11.5653 15.8476 11.0585 16.3544 10.4155 16.3544H9.50284H2.59692C1.95385 16.3544 1.44713 15.8476 1.44713 15.2046V9.69188C1.44713 9.45871 1.46038 9.22675 1.48306 8.99572Z" fill="#1CAE81"/>
</svg>
